<?xml version="1.0" encoding="utf-8"?>
<!-- created with bpmn-js / http://bpmn.io -->
<!DOCTYPE svg PUBLIC "-//W3C//DTD SVG 1.1//EN" "http://www.w3.org/Graphics/SVG/1.1/DTD/svg11.dtd">
<svg xmlns="http://www.w3.org/2000/svg" xmlns:xlink="http://www.w3.org/1999/xlink" width="1096" height="428" viewBox="151 94 1096 428" version="1.1"><defs><marker id="association-end-white-hsl_225_10_15_-ds418pzhnz3fijtwwx5jps2mb" viewBox="0 0 20 20" refX="12" refY="10" markerWidth="10" markerHeight="10" orient="auto"><path d="M 1 5 L 11 10 L 1 15" style="fill: none; stroke-width: 1.5px; stroke-linecap: round; stroke-dasharray: 10000, 1; stroke: rgb(34, 36, 42);"/></marker><marker id="sequenceflow-end-white-hsl_225_10_15_-ds418pzhnz3fijtwwx5jps2mb" viewBox="0 0 20 20" refX="11" refY="10" markerWidth="10" markerHeight="10" orient="auto"><path d="M 1 5 L 11 10 L 1 15 Z" style="fill: rgb(34, 36, 42); stroke-width: 1px; stroke-linecap: round; stroke-dasharray: 10000, 1; stroke: rgb(34, 36, 42);"/></marker></defs><g class="djs-group"><g class="djs-element djs-shape" data-element-id="StartEvent_04u7hfv" style="display: block;" transform="matrix(1 0 0 1 172 332)"><g class="djs-visual"><circle cx="18" cy="18" r="18" style="stroke: rgb(34, 36, 42); stroke-width: 2px; fill: white; fill-opacity: 0.95;"/></g><rect class="djs-hit djs-hit-all" x="0" y="0" width="36" height="36" style="fill: none; stroke-opacity: 0; stroke: white; stroke-width: 15px;"/><rect x="-6" y="-6" rx="3" width="48" height="48" class="djs-outline" style="fill: none;"/></g></g><g class="djs-group"><g class="djs-element djs-shape" data-element-id="StartEvent_04u7hfv_label" style="display: block;" transform="matrix(1 0 0 1 157 377)"><g class="djs-visual"><text lineHeight="1.2" class="djs-label" style="font-family: Arial, sans-serif; font-size: 11px; font-weight: normal; fill: rgb(34, 36, 42);"><tspan x="0" y="9.899999999999999">Start process</tspan></text></g><rect class="djs-hit djs-hit-all" x="0" y="0" width="66" height="14" style="fill: none; stroke-opacity: 0; stroke: white; stroke-width: 15px;"/><rect x="-6" y="-6" rx="3" width="78" height="26" class="djs-outline" style="fill: none;"/></g></g><g class="djs-group"><g class="djs-element djs-shape" data-element-id="Activity_1mo64wj" style="display: block;" transform="matrix(1 0 0 1 260 310)"><g class="djs-visual"><rect x="0" y="0" width="100" height="80" rx="10" ry="10" style="stroke: rgb(34, 36, 42); stroke-width: 2px; fill: white; fill-opacity: 0.95;"/><text lineHeight="1.2" class="djs-label" style="font-family: Arial, sans-serif; font-size: 12px; font-weight: normal; fill: rgb(34, 36, 42);"><tspan x="7.973957061767578" y="43.599999999999994">User opens tool</tspan></text></g><rect class="djs-hit djs-hit-all" x="0" y="0" width="100" height="80" style="fill: none; stroke-opacity: 0; stroke: white; stroke-width: 15px;"/><rect x="-6" y="-6" rx="3" width="112" height="92" class="djs-outline" style="fill: none;"/></g></g><g class="djs-group"><g class="djs-element djs-shape" data-element-id="DataObjectReference_0kqzoub" style="display: block;" transform="matrix(1 0 0 1 292 445)"><g class="djs-visual"><path d="m 0,0 28.23529411764706,0 7.058823529411765,8.196721311475411 0,40.98360655737705 -35.294117647058826,0 0,-49.18032786885246 28.23529411764706,0 0,8.196721311475411 7.058823529411765,0" style="fill: white; stroke-width: 2px; stroke: rgb(34, 36, 42); fill-opacity: 0.95;"/></g><rect class="djs-hit djs-hit-all" x="0" y="0" width="36" height="50" style="fill: none; stroke-opacity: 0; stroke: white; stroke-width: 15px;"/><rect x="-6" y="-6" rx="3" width="48" height="62" class="djs-outline" style="fill: none;"/></g></g><g class="djs-group"><g class="djs-element djs-shape" data-element-id="DataObjectReference_0kqzoub_label" style="display: block;" transform="matrix(1 0 0 1 285 502)"><g class="djs-visual"><text lineHeight="1.2" class="djs-label" style="font-family: Arial, sans-serif; font-size: 11px; font-weight: normal; fill: rgb(34, 36, 42);"><tspan x="0" y="9.899999999999999">IFC Model</tspan></text></g><rect class="djs-hit djs-hit-all" x="0" y="0" width="51" height="14" style="fill: none; stroke-opacity: 0; stroke: white; stroke-width: 15px;"/><rect x="-6" y="-6" rx="3" width="63" height="26" class="djs-outline" style="fill: none;"/></g></g><g class="djs-group"><g class="djs-element djs-shape" data-element-id="Activity_1i6sbbu" style="display: block;" transform="matrix(1 0 0 1 440 430)"><g class="djs-visual"><rect x="0" y="0" width="100" height="80" rx="10" ry="10" style="stroke: rgb(34, 36, 42); stroke-width: 2px; fill: white; fill-opacity: 0.95;"/><text lineHeight="1.2" class="djs-label" style="font-family: Arial, sans-serif; font-size: 12px; font-weight: normal; fill: rgb(34, 36, 42);"><tspan x="9.979164123535156" y="36.4">Floor plans are </tspan><tspan x="24.645832061767578" y="50.8">displayed</tspan></text></g><rect class="djs-hit djs-hit-all" x="0" y="0" width="100" height="80" style="fill: none; stroke-opacity: 0; stroke: white; stroke-width: 15px;"/><rect x="-6" y="-6" rx="3" width="112" height="92" class="djs-outline" style="fill: none;"/></g></g><g class="djs-group"><g class="djs-element djs-shape" data-element-id="Gateway_1ijoi52" style="display: block;" transform="matrix(1 0 0 1 945 325)"><g class="djs-visual"><polygon points="25,0 50,25 25,50 0,25" style="stroke: rgb(34, 36, 42); stroke-width: 2px; fill: white; fill-opacity: 0.95;"/><path d="m 16,15 7.42857142857143,9.714285714285715 -7.42857142857143,9.714285714285715 3.428571428571429,0 5.714285714285715,-7.464228571428572 5.714285714285715,7.464228571428572 3.428571428571429,0 -7.42857142857143,-9.714285714285715 7.42857142857143,-9.714285714285715 -3.428571428571429,0 -5.714285714285715,7.464228571428572 -5.714285714285715,-7.464228571428572 -3.428571428571429,0 z" style="fill: rgb(34, 36, 42); stroke-width: 1px; stroke: rgb(34, 36, 42);"/></g><rect class="djs-hit djs-hit-all" x="0" y="0" width="50" height="50" style="fill: none; stroke-opacity: 0; stroke: white; stroke-width: 15px;"/><rect x="-6" y="-6" rx="3" width="62" height="62" class="djs-outline" style="fill: none;"/></g></g><g class="djs-group"><g class="djs-element djs-shape" data-element-id="Activity_0mix4c9" style="display: block;" transform="matrix(1 0 0 1 920 190)"><g class="djs-visual"><rect x="0" y="0" width="100" height="80" rx="10" ry="10" style="stroke: rgb(34, 36, 42); stroke-width: 2px; fill: white; fill-opacity: 0.95;"/><text lineHeight="1.2" class="djs-label" style="font-family: Arial, sans-serif; font-size: 12px; font-weight: normal; fill: rgb(34, 36, 42);"><tspan x="11.3115234375" y="36.4">Results do not </tspan><tspan x="30.66178321838379" y="50.8">comply</tspan></text></g><rect class="djs-hit djs-hit-all" x="0" y="0" width="100" height="80" style="fill: none; stroke-opacity: 0; stroke: white; stroke-width: 15px;"/><rect x="-6" y="-6" rx="3" width="112" height="92" class="djs-outline" style="fill: none;"/></g></g><g class="djs-group"><g class="djs-element djs-shape" data-element-id="Activity_0a7cdcv" style="display: block;" transform="matrix(1 0 0 1 620 310)"><g class="djs-visual"><rect x="0" y="0" width="100" height="80" rx="10" ry="10" style="stroke: rgb(34, 36, 42); stroke-width: 2px; fill: white; fill-opacity: 0.95;"/><text lineHeight="1.2" class="djs-label" style="font-family: Arial, sans-serif; font-size: 12px; font-weight: normal; fill: rgb(34, 36, 42);"><tspan x="10.640625" y="14.799999999999999">Tool calculates </tspan><tspan x="24.317707061767578" y="29.199999999999996">total cost, </tspan><tspan x="23.973957061767578" y="43.599999999999994">loads and </tspan><tspan x="31.65104103088379" y="57.99999999999999">carbon </tspan><tspan x="23.32291603088379" y="72.39999999999999">emissions</tspan></text></g><rect class="djs-hit djs-hit-all" x="0" y="0" width="100" height="80" style="fill: none; stroke-opacity: 0; stroke: white; stroke-width: 15px;"/><rect x="-6" y="-6" rx="3" width="112" height="92" class="djs-outline" style="fill: none;"/></g></g><g class="djs-group"><g class="djs-element djs-shape" data-element-id="Activity_00bc9gd" style="display: block;" transform="matrix(1 0 0 1 440 310)"><g class="djs-visual"><rect x="0" y="0" width="100" height="80" rx="10" ry="10" style="stroke: rgb(34, 36, 42); stroke-width: 2px; fill: white; fill-opacity: 0.95;"/><text lineHeight="1.2" class="djs-label" style="font-family: Arial, sans-serif; font-size: 12px; font-weight: normal; fill: rgb(34, 36, 42);"><tspan x="6.973957061767578" y="29.200000000000003">Relevant data is</tspan><tspan x="6.979164123535156" y="43.6">read from linked</tspan><tspan x="18.645832061767578" y="58">data source</tspan></text></g><rect class="djs-hit djs-hit-all" x="0" y="0" width="100" height="80" style="fill: none; stroke-opacity: 0; stroke: white; stroke-width: 15px;"/><rect x="-6" y="-6" rx="3" width="112" height="92" class="djs-outline" style="fill: none;"/></g></g><g class="djs-group"><g class="djs-element djs-shape" data-element-id="Gateway_15jujep" style="display: block;" transform="matrix(1 0 0 1 795 325)"><g class="djs-visual"><polygon points="25,0 50,25 25,50 0,25" style="stroke: rgb(34, 36, 42); stroke-width: 2px; fill: white; fill-opacity: 0.95;"/><path d="m 16,15 7.42857142857143,9.714285714285715 -7.42857142857143,9.714285714285715 3.428571428571429,0 5.714285714285715,-7.464228571428572 5.714285714285715,7.464228571428572 3.428571428571429,0 -7.42857142857143,-9.714285714285715 7.42857142857143,-9.714285714285715 -3.428571428571429,0 -5.714285714285715,7.464228571428572 -5.714285714285715,-7.464228571428572 -3.428571428571429,0 z" style="fill: rgb(34, 36, 42); stroke-width: 1px; stroke: rgb(34, 36, 42);"/></g><rect class="djs-hit djs-hit-all" x="0" y="0" width="50" height="50" style="fill: none; stroke-opacity: 0; stroke: white; stroke-width: 15px;"/><rect x="-6" y="-6" rx="3" width="62" height="62" class="djs-outline" style="fill: none;"/></g></g><g class="djs-group"><g class="djs-element djs-shape" data-element-id="DataStoreReference_1l9k06b" style="display: block;" transform="matrix(1 0 0 1 465 175)"><g class="djs-visual"><path d="m  0,6.65 l  0,36.885245901639344 c  1.639344262295082,8.196721311475411 47.540983606557376,8.196721311475411  49.18032786885246,0 l  0,-36.885245901639344 c -1.639344262295082,-8.196721311475411 -47.540983606557376,-8.196721311475411 -49.18032786885246,0c  1.639344262295082,8.196721311475411 47.540983606557376,8.196721311475411  49.18032786885246,0 m  -49.18032786885246,5.737704918032787c  1.639344262295082,8.196721311475411 47.540983606557376,8.196721311475411 49.18032786885246,0m  -49.18032786885246,5.737704918032787c  1.639344262295082,8.196721311475411 47.540983606557376,8.196721311475411  49.18032786885246,0" style="fill: white; stroke-width: 2px; stroke: rgb(34, 36, 42); fill-opacity: 0.95;"/></g><rect class="djs-hit djs-hit-all" x="0" y="0" width="50" height="50" style="fill: none; stroke-opacity: 0; stroke: white; stroke-width: 15px;"/><rect x="-6" y="-6" rx="3" width="62" height="62" class="djs-outline" style="fill: none;"/></g></g><g class="djs-group"><g class="djs-element djs-shape" data-element-id="Activity_0k0pqbv" style="display: block;" transform="matrix(1 0 0 1 770 190)"><g class="djs-visual"><rect x="0" y="0" width="100" height="80" rx="10" ry="10" style="stroke: rgb(34, 36, 42); stroke-width: 2px; fill: white; fill-opacity: 0.95;"/><text lineHeight="1.2" class="djs-label" style="font-family: Arial, sans-serif; font-size: 12px; font-weight: normal; fill: rgb(34, 36, 42);"><tspan x="7.302082061767578" y="36.4">Too high carbon</tspan><tspan x="26.32291603088379" y="50.8">emission</tspan></text></g><rect class="djs-hit djs-hit-all" x="0" y="0" width="100" height="80" style="fill: none; stroke-opacity: 0; stroke: white; stroke-width: 15px;"/><rect x="-6" y="-6" rx="3" width="112" height="92" class="djs-outline" style="fill: none;"/></g></g><g class="djs-group"><g class="djs-element djs-shape" data-element-id="Activity_1crnbh0" style="display: block;" transform="matrix(1 0 0 1 1050 310)"><g class="djs-visual"><rect x="0" y="0" width="100" height="80" rx="10" ry="10" style="stroke: rgb(34, 36, 42); stroke-width: 2px; fill: white; fill-opacity: 0.95;"/><text lineHeight="1.2" class="djs-label" style="font-family: Arial, sans-serif; font-size: 12px; font-weight: normal; fill: rgb(34, 36, 42);"><tspan x="7.651039123535156" y="36.4">User is satisfied </tspan><tspan x="20.32291668653488" y="50.8">with results</tspan></text></g><rect class="djs-hit djs-hit-all" x="0" y="0" width="100" height="80" style="fill: none; stroke-opacity: 0; stroke: white; stroke-width: 15px;"/><rect x="-6" y="-6" rx="3" width="112" height="92" class="djs-outline" style="fill: none;"/></g></g><g class="djs-group"><g class="djs-element djs-shape" data-element-id="Event_0n826tf" style="display: block;" transform="matrix(1 0 0 1 1192 332)"><g class="djs-visual"><circle cx="18" cy="18" r="18" style="stroke: rgb(34, 36, 42); stroke-width: 4px; fill: white; fill-opacity: 0.95;"/></g><rect class="djs-hit djs-hit-all" x="0" y="0" width="36" height="36" style="fill: none; stroke-opacity: 0; stroke: white; stroke-width: 15px;"/><rect x="-6" y="-6" rx="3" width="48" height="48" class="djs-outline" style="fill: none;"/></g></g><g class="djs-group"><g class="djs-element djs-shape" data-element-id="DataObjectReference_1ci8oej" style="display: block;" transform="matrix(1 0 0 1 502 235)"><g class="djs-visual"><path d="m 0,0 28.23529411764706,0 7.058823529411765,8.196721311475411 0,40.98360655737705 -35.294117647058826,0 0,-49.18032786885246 28.23529411764706,0 0,8.196721311475411 7.058823529411765,0" style="fill: white; stroke-width: 2px; stroke: rgb(34, 36, 42); fill-opacity: 0.95;"/></g><rect class="djs-hit djs-hit-all" x="0" y="0" width="36" height="50" style="fill: none; stroke-opacity: 0; stroke: white; stroke-width: 15px;"/><rect x="-6" y="-6" rx="3" width="48" height="62" class="djs-outline" style="fill: none;"/></g></g><g class="djs-group"><g class="djs-element djs-shape" data-element-id="Activity_0ocfvs2" style="display: block;" transform="matrix(1 0 0 1 620 100)"><g class="djs-visual"><rect x="0" y="0" width="100" height="80" rx="10" ry="10" style="stroke: rgb(34, 36, 42); stroke-width: 2px; fill: white; fill-opacity: 0.95;"/><text lineHeight="1.2" class="djs-label" style="font-family: Arial, sans-serif; font-size: 12px; font-weight: normal; fill: rgb(34, 36, 42);"><tspan x="7.973957061767578" y="22">User negotiates </tspan><tspan x="18.65104103088379" y="36.4">the material </tspan><tspan x="17.317707061767578" y="50.8">choices with </tspan><tspan x="11.6396484375" y="65.19999999999999">relevant agent</tspan></text></g><rect class="djs-hit djs-hit-all" x="0" y="0" width="100" height="80" style="fill: none; stroke-opacity: 0; stroke: white; stroke-width: 15px;"/><rect x="-6" y="-6" rx="3" width="112" height="92" class="djs-outline" style="fill: none;"/></g></g><g class="djs-group"><g class="djs-element djs-connection" data-element-id="DataInputAssociation_181ku18" style="display: block;"><g class="djs-visual"><polyline points="310,445 310,390 " style="fill: none; stroke: rgb(34, 36, 42); stroke-width: 2px; stroke-dasharray: 0.5, 5; stroke-linecap: round; stroke-linejoin: round; marker-end: url('#association-end-white-hsl_225_10_15_-ds418pzhnz3fijtwwx5jps2mb');"/></g><polyline points="310,445 310,390 " class="djs-hit djs-hit-stroke" style="fill: none; stroke-opacity: 0; stroke: white; stroke-width: 15px;"/><rect x="304" y="384" rx="3" width="12" height="67" class="djs-outline" style="fill: none;"/></g></g><g class="djs-group"><g class="djs-element djs-connection" data-element-id="Flow_1biqc61" style="display: block;"><g class="djs-visual"><path d="m  208,350L260,350 " style="fill: none; stroke-width: 2px; stroke: rgb(34, 36, 42); stroke-linejoin: round; marker-end: url('#sequenceflow-end-white-hsl_225_10_15_-ds418pzhnz3fijtwwx5jps2mb');"/></g><polyline points="208,350 260,350 " class="djs-hit djs-hit-stroke" style="fill: none; stroke-opacity: 0; stroke: white; stroke-width: 15px;"/><rect x="202" y="344" rx="3" width="64" height="12" class="djs-outline" style="fill: none;"/></g></g><g class="djs-group"><g class="djs-element djs-connection" data-element-id="Flow_0vf5v8u" style="display: block;"><g class="djs-visual"><path d="m  360,350L390,350 L390,470 L440,470 " style="fill: none; stroke-width: 2px; stroke: rgb(34, 36, 42); stroke-linejoin: round; marker-end: url('#sequenceflow-end-white-hsl_225_10_15_-ds418pzhnz3fijtwwx5jps2mb');"/></g><polyline points="360,350 390,350 390,470 440,470 " class="djs-hit djs-hit-stroke" style="fill: none; stroke-opacity: 0; stroke: white; stroke-width: 15px;"/><rect x="354" y="344" rx="3" width="92" height="132" class="djs-outline" style="fill: none;"/></g></g><g class="djs-group"><g class="djs-element djs-connection" data-element-id="Flow_0rpvg6c" style="display: block;"><g class="djs-visual"><path d="m  720,350L795,350 " style="fill: none; stroke-width: 2px; stroke: rgb(34, 36, 42); stroke-linejoin: round; marker-end: url('#sequenceflow-end-white-hsl_225_10_15_-ds418pzhnz3fijtwwx5jps2mb');"/></g><polyline points="720,350 795,350 " class="djs-hit djs-hit-stroke" style="fill: none; stroke-opacity: 0; stroke: white; stroke-width: 15px;"/><rect x="714" y="344" rx="3" width="87" height="12" class="djs-outline" style="fill: none;"/></g></g><g class="djs-group"><g class="djs-element djs-connection" data-element-id="Flow_0xh2azk" style="display: block;"><g class="djs-visual"><path d="m  995,350L1050,350 " style="fill: none; stroke-width: 2px; stroke: rgb(34, 36, 42); stroke-linejoin: round; marker-end: url('#sequenceflow-end-white-hsl_225_10_15_-ds418pzhnz3fijtwwx5jps2mb');"/></g><polyline points="995,350 1050,350 " class="djs-hit djs-hit-stroke" style="fill: none; stroke-opacity: 0; stroke: white; stroke-width: 15px;"/><rect x="989" y="344" rx="3" width="67" height="12" class="djs-outline" style="fill: none;"/></g></g><g class="djs-group"><g class="djs-element djs-connection" data-element-id="Flow_1m5vqv5" style="display: block;"><g class="djs-visual"><path d="m  1150,350L1192,350 " style="fill: none; stroke-width: 2px; stroke: rgb(34, 36, 42); stroke-linejoin: round; marker-end: url('#sequenceflow-end-white-hsl_225_10_15_-ds418pzhnz3fijtwwx5jps2mb');"/></g><polyline points="1150,350 1192,350 " class="djs-hit djs-hit-stroke" style="fill: none; stroke-opacity: 0; stroke: white; stroke-width: 15px;"/><rect x="1144" y="344" rx="3" width="54" height="12" class="djs-outline" style="fill: none;"/></g></g><g class="djs-group"><g class="djs-element djs-connection" data-element-id="Flow_18r03jp" style="display: block;"><g class="djs-visual"><path d="m  970,325L970,270 " style="fill: none; stroke-width: 2px; stroke: rgb(34, 36, 42); stroke-linejoin: round; marker-end: url('#sequenceflow-end-white-hsl_225_10_15_-ds418pzhnz3fijtwwx5jps2mb');"/></g><polyline points="970,325 970,270 " class="djs-hit djs-hit-stroke" style="fill: none; stroke-opacity: 0; stroke: white; stroke-width: 15px;"/><rect x="964" y="264" rx="3" width="12" height="67" class="djs-outline" style="fill: none;"/></g></g><g class="djs-group"><g class="djs-element djs-connection" data-element-id="Flow_166enav" style="display: block;"><g class="djs-visual"><path d="m  360,350L440,350 " style="fill: none; stroke-width: 2px; stroke: rgb(34, 36, 42); stroke-linejoin: round; marker-end: url('#sequenceflow-end-white-hsl_225_10_15_-ds418pzhnz3fijtwwx5jps2mb');"/></g><polyline points="360,350 440,350 " class="djs-hit djs-hit-stroke" style="fill: none; stroke-opacity: 0; stroke: white; stroke-width: 15px;"/><rect x="354" y="344" rx="3" width="92" height="12" class="djs-outline" style="fill: none;"/></g></g><g class="djs-group"><g class="djs-element djs-connection" data-element-id="Flow_0kj4rzw" style="display: block;"><g class="djs-visual"><path d="m  540,350L620,350 " style="fill: none; stroke-width: 2px; stroke: rgb(34, 36, 42); stroke-linejoin: round; marker-end: url('#sequenceflow-end-white-hsl_225_10_15_-ds418pzhnz3fijtwwx5jps2mb');"/></g><polyline points="540,350 620,350 " class="djs-hit djs-hit-stroke" style="fill: none; stroke-opacity: 0; stroke: white; stroke-width: 15px;"/><rect x="534" y="344" rx="3" width="92" height="12" class="djs-outline" style="fill: none;"/></g></g><g class="djs-group"><g class="djs-element djs-connection" data-element-id="DataOutputAssociation_14vwh8j" style="display: block;"><g class="djs-visual"><polyline points="620,140 490,140 490,175 " style="fill: none; stroke: rgb(34, 36, 42); stroke-width: 2px; stroke-dasharray: 0.5, 5; stroke-linecap: round; stroke-linejoin: round; marker-end: url('#association-end-white-hsl_225_10_15_-ds418pzhnz3fijtwwx5jps2mb');"/></g><polyline points="620,140 490,140 490,175 " class="djs-hit djs-hit-stroke" style="fill: none; stroke-opacity: 0; stroke: white; stroke-width: 15px;"/><rect x="484" y="134" rx="3" width="142" height="47" class="djs-outline" style="fill: none;"/></g></g><g class="djs-group"><g class="djs-element djs-connection" data-element-id="Flow_1ro2r6y" style="display: block;"><g class="djs-visual"><path d="m  970,190L970,140 L720,140 " style="fill: none; stroke-width: 2px; stroke: rgb(34, 36, 42); stroke-linejoin: round; marker-end: url('#sequenceflow-end-white-hsl_225_10_15_-ds418pzhnz3fijtwwx5jps2mb');"/></g><polyline points="970,190 970,140 720,140 " class="djs-hit djs-hit-stroke" style="fill: none; stroke-opacity: 0; stroke: white; stroke-width: 15px;"/><rect x="714" y="134" rx="3" width="262" height="62" class="djs-outline" style="fill: none;"/></g></g><g class="djs-group"><g class="djs-element djs-shape" data-element-id="Gateway_1ijoi52_label" style="display: block;" transform="matrix(1 0 0 1 931 382)"><g class="djs-visual"><text lineHeight="1.2" class="djs-label" style="font-family: Arial, sans-serif; font-size: 11px; font-weight: normal; fill: rgb(34, 36, 42);"><tspan x="8.25537109375" y="9.899999999999999">Does results </tspan><tspan x="10.337890625" y="23.099999999999998">comply with </tspan><tspan x="0" y="36.3">structural codes </tspan><tspan x="8.483722686767578" y="49.5">and budget?</tspan></text></g><rect class="djs-hit djs-hit-all" x="0" y="0" width="79" height="53" style="fill: none; stroke-opacity: 0; stroke: white; stroke-width: 15px;"/><rect x="-6" y="-6" rx="3" width="91" height="65" class="djs-outline" style="fill: none;"/></g></g><g class="djs-group"><g class="djs-element djs-connection" data-element-id="DataInputAssociation_03rmm3p" style="display: block;"><g class="djs-visual"><polyline points="490,225 490,310 " style="fill: none; stroke: rgb(34, 36, 42); stroke-width: 2px; stroke-dasharray: 0.5, 5; stroke-linecap: round; stroke-linejoin: round; marker-end: url('#association-end-white-hsl_225_10_15_-ds418pzhnz3fijtwwx5jps2mb');"/></g><polyline points="490,225 490,310 " class="djs-hit djs-hit-stroke" style="fill: none; stroke-opacity: 0; stroke: white; stroke-width: 15px;"/><rect x="484" y="219" rx="3" width="12" height="97" class="djs-outline" style="fill: none;"/></g></g><g class="djs-group"><g class="djs-element djs-shape" data-element-id="label_12" style="display: block;" transform="matrix(1 0 0 1 786 382)"><g class="djs-visual"><text lineHeight="1.2" class="djs-label" style="font-family: Arial, sans-serif; font-size: 11px; font-weight: normal; fill: rgb(34, 36, 42);"><tspan x="3.72998046875" y="9.899999999999999">Does results </tspan><tspan x="5.8125" y="23.099999999999998">comply with </tspan><tspan x="7.390380859375" y="36.3">regulations </tspan><tspan x="11.307291030883789" y="49.5">regarding </tspan><tspan x="0" y="62.7">sustainability?</tspan></text></g><rect class="djs-hit djs-hit-all" x="0" y="0" width="70" height="66" style="fill: none; stroke-opacity: 0; stroke: white; stroke-width: 15px;"/><rect x="-6" y="-6" rx="3" width="82" height="78" class="djs-outline" style="fill: none;"/></g></g><g class="djs-group"><g class="djs-element djs-connection" data-element-id="Flow_1xleadm" style="display: block;"><g class="djs-visual"><path d="m  845,350L945,350 " style="fill: none; stroke-width: 2px; stroke: rgb(34, 36, 42); stroke-linejoin: round; marker-end: url('#sequenceflow-end-white-hsl_225_10_15_-ds418pzhnz3fijtwwx5jps2mb');"/></g><polyline points="845,350 945,350 " class="djs-hit djs-hit-stroke" style="fill: none; stroke-opacity: 0; stroke: white; stroke-width: 15px;"/><rect x="839" y="344" rx="3" width="112" height="12" class="djs-outline" style="fill: none;"/></g></g><g class="djs-group"><g class="djs-element djs-connection" data-element-id="Flow_1n625kg" style="display: block;"><g class="djs-visual"><path d="m  820,325L820,270 " style="fill: none; stroke-width: 2px; stroke: rgb(34, 36, 42); stroke-linejoin: round; marker-end: url('#sequenceflow-end-white-hsl_225_10_15_-ds418pzhnz3fijtwwx5jps2mb');"/></g><polyline points="820,325 820,270 " class="djs-hit djs-hit-stroke" style="fill: none; stroke-opacity: 0; stroke: white; stroke-width: 15px;"/><rect x="814" y="264" rx="3" width="12" height="67" class="djs-outline" style="fill: none;"/></g></g><g class="djs-group"><g class="djs-element djs-shape" data-element-id="DataStoreReference_1l9k06b_label" style="display: block;" transform="matrix(1 0 0 1 370 167)"><g class="djs-visual"><text lineHeight="1.2" class="djs-label" style="font-family: Arial, sans-serif; font-size: 11px; font-weight: normal; fill: rgb(34, 36, 42);"><tspan x="0" y="9.899999999999999">Cloud-based bill </tspan><tspan x="9.533531188964844" y="23.099999999999998">of quantities </tspan><tspan x="7.693931579589844" y="36.3">populated by </tspan><tspan x="8.067873001098633" y="49.5">contractor or </tspan><tspan x="11.476482391357422" y="62.7">other agent</tspan></text></g><rect class="djs-hit djs-hit-all" x="0" y="0" width="79" height="66" style="fill: none; stroke-opacity: 0; stroke: white; stroke-width: 15px;"/><rect x="-6" y="-6" rx="3" width="91" height="78" class="djs-outline" style="fill: none;"/></g></g><g class="djs-group"><g class="djs-element djs-connection" data-element-id="Flow_13sb1m8" style="display: block;"><g class="djs-visual"><path d="m  820,190L820,140 L720,140 " style="fill: none; stroke-width: 2px; stroke: rgb(34, 36, 42); stroke-linejoin: round; marker-end: url('#sequenceflow-end-white-hsl_225_10_15_-ds418pzhnz3fijtwwx5jps2mb');"/></g><polyline points="820,190 820,140 720,140 " class="djs-hit djs-hit-stroke" style="fill: none; stroke-opacity: 0; stroke: white; stroke-width: 15px;"/><rect x="714" y="134" rx="3" width="112" height="62" class="djs-outline" style="fill: none;"/></g></g><g class="djs-group"><g class="djs-element djs-shape" data-element-id="Event_0n826tf_label" style="display: block;" transform="matrix(1 0 0 1 1179 375)"><g class="djs-visual"><text lineHeight="1.2" class="djs-label" style="font-family: Arial, sans-serif; font-size: 11px; font-weight: normal; fill: rgb(34, 36, 42);"><tspan x="0" y="9.899999999999999">End process</tspan></text></g><rect class="djs-hit djs-hit-all" x="0" y="0" width="62" height="14" style="fill: none; stroke-opacity: 0; stroke: white; stroke-width: 15px;"/><rect x="-6" y="-6" rx="3" width="74" height="26" class="djs-outline" style="fill: none;"/></g></g><g class="djs-group"><g class="djs-element djs-shape" data-element-id="DataObjectReference_1ci8oej_label" style="display: block;" transform="matrix(1 0 0 1 555 240)"><g class="djs-visual"><text lineHeight="1.2" class="djs-label" style="font-family: Arial, sans-serif; font-size: 11px; font-weight: normal; fill: rgb(34, 36, 42);"><tspan x="2.304931640625" y="9.899999999999999">Cost, density and </tspan><tspan x="0" y="23.099999999999998">carbon footprint of</tspan><tspan x="22.243408203125" y="36.3">materials</tspan></text></g><rect class="djs-hit djs-hit-all" x="0" y="0" width="90" height="40" style="fill: none; stroke-opacity: 0; stroke: white; stroke-width: 15px;"/><rect x="-6" y="-6" rx="3" width="102" height="52" class="djs-outline" style="fill: none;"/></g></g></svg>